<svg version="1.0" xmlns="http://www.w3.org/2000/svg" width="38.667" height="28" viewBox="0 0 29 21"><path d="M0 .9C0 1.5 1.5 2 3.2 2.2c3.1.3 3.4.6 4.8 6.3l1.5 6h15.8l1.8-5.3L28.9 4H19c-9 0-9.9-.2-10.5-2C8 .4 7 0 3.9 0 1.8 0 0 .4 0 .9zm26 5.5c0 .1-.5 1.7-1.1 3.5-1.1 3-1.2 3.1-7.4 3.1-5.7 0-6.3-.2-6.9-2.3C9.4 6.1 9.6 6 18 6c4.4 0 8 .2 8 .4z"/><path d="M13 9c0 .5.9 1 2 1s2-.5 2-1c0-.6-.9-1-2-1s-2 .4-2 1zm6 0c0 .5.6 1 1.4 1 .8 0 1.8-.5 2.1-1 .3-.6-.3-1-1.4-1-1.2 0-2.1.4-2.1 1zm-7.7 8.6c-.8 2.1 1.3 4.2 2.8 2.7 1.3-1.3.5-4.3-1.1-4.3-.6 0-1.3.7-1.7 1.6zm9 0c-.8 2.1 1.3 4.2 2.8 2.7 1.3-1.3.5-4.3-1.1-4.3-.6 0-1.3.7-1.7 1.6z"/></svg>